<?xml version="1.0" encoding="UTF-8"?>
<svg id="Réteg_1" data-name="Réteg 1" xmlns="http://www.w3.org/2000/svg" viewBox="0 0 1550 759.17">
  <defs>
    <style>
      .cls-1 {
        fill: none;
        stroke: #1c1f62;
        stroke-miterlimit: 10;
        stroke-width: 20px;
      }

      .cls-2 {
        fill: #1c1f62;
      }

      .cls-2, .cls-3 {
        stroke-width: 0px;
      }

      .cls-3 {
        fill: #fff;
      }
    </style>
  </defs>
  <path class="cls-1" d="m780.65,10h-13.94C245.1,10,10,10,10,323.65s235.28,313.65,756.9,313.65h13.94c521.62,0,759.16,0,759.16-313.65S1302.27,10,780.65,10Z"/>
  <path class="cls-2" d="m223.43,303.86c-10.74-.94-16.2-1.51-26.94-2.45v78.36c-18.08-5.27-36.17-10.74-54.25-16.39v-199.11c26.94-8.29,53.88-16.2,81.19-23.74,51.05-13.75,73.84,32.21,73.65,76.29-.19,43.33-23.36,91.36-73.65,87.03Zm-5.27-54.44c16.39-.57,23.17-11.68,23.17-28.26s-6.78-27.13-23.17-24.68c-8.67,1.32-13,1.88-21.66,3.39v50.3c8.48-.38,12.81-.57,21.66-.75Z"/>
  <path class="cls-2" d="m414.45,433.27c-71.58-13.19-101.91-107.75-101.91-170.29s30.33-156.73,101.91-169.92c84.96-15.82,102.48,116.61,102.48,169.92-.19,52.93-17.71,185.93-102.48,170.29Zm0-85.71c41.44,3.96,45.77-59.72,45.96-84.77,0-25.24-4.14-89.29-45.96-85.15-38.24,3.77-45.78,55.95-45.78,85.15s7.91,81.19,45.78,84.77Z"/>
  <path class="cls-2" d="m625.43,326.27c-11.11-.19-16.58-.38-27.69-.75v127.72c-18.65-1.51-37.3-3.39-55.95-5.46V79.87c27.88-2.83,55.57-5.27,83.64-7.35,63.48-3.39,75.54,79.87,75.54,126.4-.19,46.91-13.75,127.72-75.54,127.34Zm-5.46-84.58c20.53-.56,23.74-26.75,23.74-41.63s-2.83-41.82-23.74-41.26c-8.85.38-13.38.57-22.23.94v82.13c8.85-.19,13.37-.19,22.23-.19Z"/>
  <path class="cls-2" d="m807.21,327.78c-11.11,0-16.58,0-27.69.19v132.62c-18.65.19-37.49,0-56.14-.38V68.57c27.88-.38,55.95-.57,83.83-.19,62.73,2.45,75.54,83.26,75.54,131.49s-14.13,126.21-75.54,127.91Zm-5.27-86.65c20.72-.38,23.74-27.13,23.74-42.01s-2.83-42.38-23.74-42.95c-8.85,0-13.37-.19-22.23-.19v85.15h22.23Z"/>
  <path class="cls-2" d="m1033.83,164.65c-24.11-1.7-48.41-3.2-72.52-4.33v61.22c21.29.38,42.77.94,64.04,1.51v76.29c-21.28.56-42.76.94-64.04,1.32v67.44c24.3-1.32,48.41-2.83,72.52-4.52v79.87c-42.76,5.27-85.52,9.42-128.47,12.62V72.34c42.95,3.01,85.71,7.16,128.47,12.43v79.87Z"/>
  <path class="cls-2" d="m1148.93,102.67c49.35,10.17,74.41,62.16,74.03,108.69-.19,31.84-12.24,71.39-43.52,86.65,14.32,37.49,29.01,74.6,44.65,111.52-20.53,4.52-41.07,8.85-61.6,13-13.56-38.24-26.75-76.48-39.56-115.1-2.45.19-3.58.19-6.03.19v123.2c-18.46,3.2-36.92,6.03-55.57,8.67V88.35c29.39,4.33,58.59,9.04,87.6,14.32Zm-4.52,74.6c-10.93-1.13-16.39-1.51-27.51-2.64v69.51c10.93.19,16.39.38,27.51.57,14.88.38,22.6-11.11,22.6-32.59,0-19.59-7.72-33.34-22.6-34.85Z"/>
  <path class="cls-2" d="m1322.05,387.31c-52.56,15.64-74.98-23.92-80.06-69.89,19.4-1.7,38.99-3.58,58.39-5.65,1.14,19.03,9.8,24.11,19.78,22.42,9.8-1.51,17.71-9.42,17.15-19.78-1.13-20.91-31.84-24.11-47.66-32.21-32.22-16.39-47.1-43.14-47.1-79.31,0-43.33,27.32-79.49,73.66-65.93,38.24,11.11,74.22,43.14,76.1,85.33-19.59-2.45-39.18-4.9-58.96-7.16-.56-14.88-8.29-22.61-18.08-24.3-7.92-1.51-14.89,3.96-14.51,15.64,1.51,46.34,94.57,35.98,93.81,96.07-.19,40.69-35.79,73.84-72.52,84.77Z"/>
  <rect class="cls-2" x="287.3" y="509.45" width="978.51" height="249.72" rx="50.71" ry="50.71"/>
  <g>
    <path class="cls-3" d="m501.6,684.04h-23.75l-39.73-61.53v61.53h-23.75v-97.79h23.75l39.73,61.53v-61.53h23.75v97.79Z"/>
    <path class="cls-3" d="m591.96,591.54c7.64,4.26,13.66,10.19,18.06,17.78,4.4,7.59,6.6,16.16,6.6,25.7s-2.22,18.13-6.67,25.77c-4.44,7.64-10.47,13.59-18.06,17.85-7.59,4.26-15.97,6.39-25.14,6.39s-17.57-2.13-25.21-6.39c-7.64-4.26-13.68-10.21-18.13-17.85-4.44-7.64-6.67-16.23-6.67-25.77s2.22-18.1,6.67-25.7c4.44-7.59,10.49-13.52,18.13-17.78,7.64-4.26,16.04-6.39,25.21-6.39s17.57,2.13,25.21,6.39Zm-44.03,23.06c-4.68,5.09-7.01,11.9-7.01,20.42s2.34,15.33,7.01,20.42c4.67,5.09,10.95,7.64,18.82,7.64s14-2.55,18.68-7.64c4.67-5.09,7.01-11.9,7.01-20.42s-2.34-15.33-7.01-20.42c-4.68-5.09-10.9-7.64-18.68-7.64s-14.15,2.55-18.82,7.64Z"/>
    <path class="cls-3" d="m765.65,586.54l-27.22,97.51h-27.22l-17.08-61.81-16.95,61.81h-27.22l-27.64-97.51h25.42l16.95,70.15,17.36-70.15h26.95l16.67,69.03,14.45-69.03h25.56Z"/>
    <path class="cls-3" d="m775.24,661.82c2.5-2.5,5.56-3.75,9.17-3.75s6.81,1.25,9.31,3.75c2.5,2.5,3.75,5.6,3.75,9.31s-1.25,6.67-3.75,9.17c-2.5,2.5-5.6,3.75-9.31,3.75s-6.67-1.25-9.17-3.75-3.75-5.56-3.75-9.17,1.25-6.81,3.75-9.31Z"/>
    <path class="cls-3" d="m885.94,593.76c8.42,5.74,14.31,13.71,17.64,23.89h-28.34c-1.95-3.8-4.4-6.53-7.36-8.2-2.96-1.67-6.58-2.5-10.83-2.5-7.87,0-14.15,2.55-18.82,7.64-4.68,5.09-7.01,11.9-7.01,20.42s2.34,15.33,7.01,20.42c4.67,5.09,10.95,7.64,18.82,7.64,4.26,0,7.87-.83,10.83-2.5,2.96-1.67,5.42-4.4,7.36-8.2h28.34c-3.33,10.19-9.22,18.15-17.64,23.89-8.43,5.74-18.06,8.61-28.89,8.61-9.17,0-17.57-2.13-25.21-6.39-7.64-4.26-13.68-10.19-18.13-17.78-4.44-7.59-6.67-16.16-6.67-25.7s2.22-18.1,6.67-25.7c4.45-7.59,10.49-13.52,18.13-17.78,7.64-4.26,16.04-6.39,25.21-6.39,10.83,0,20.46,2.87,28.89,8.61Z"/>
    <path class="cls-3" d="m988.38,591.54c7.64,4.26,13.66,10.19,18.06,17.78,4.4,7.59,6.6,16.16,6.6,25.7s-2.22,18.13-6.67,25.77c-4.44,7.64-10.46,13.59-18.06,17.85-7.59,4.26-15.97,6.39-25.14,6.39s-17.57-2.13-25.21-6.39c-7.64-4.26-13.68-10.21-18.13-17.85-4.44-7.64-6.67-16.23-6.67-25.77s2.22-18.1,6.67-25.7c4.45-7.59,10.49-13.52,18.13-17.78,7.64-4.26,16.04-6.39,25.21-6.39s17.57,2.13,25.21,6.39Zm-44.03,23.06c-4.68,5.09-7.01,11.9-7.01,20.42s2.34,15.33,7.01,20.42c4.67,5.09,10.95,7.64,18.82,7.64s14-2.55,18.68-7.64c4.67-5.09,7.01-11.9,7.01-20.42s-2.34-15.33-7.01-20.42c-4.68-5.09-10.9-7.64-18.68-7.64s-14.15,2.55-18.82,7.64Z"/>
    <path class="cls-3" d="m1138.74,586.54v97.51h-23.75v-55l-22.64,55h-17.64l-22.64-55v55h-23.75v-97.51h27.22l28.06,67.23,27.92-67.23h27.22Z"/>
  </g>
</svg>